<?xml version="1.0" encoding="UTF-8"?>
<svg version="1.1" xmlns="http://www.w3.org/2000/svg" width="1024" height="1024">
<path d="M0 0 C337.92 0 675.84 0 1024 0 C1024 337.92 1024 675.84 1024 1024 C686.08 1024 348.16 1024 0 1024 C0 686.08 0 348.16 0 0 Z " fill="#4E328E" transform="translate(0,0)"/>
<path d="M0 0 C0.9607695 0.00015106 1.921539 0.00030212 2.91142273 0.00045776 C3.94588028 0.01078033 4.98033783 0.02110291 6.04614258 0.03173828 C7.63789055 0.03598312 7.63789055 0.03598312 9.26179504 0.04031372 C12.6548688 0.05151894 16.0476797 0.07662431 19.44067383 0.10205078 C21.73949814 0.11208013 24.03832659 0.12120606 26.3371582 0.12939453 C31.97591994 0.15145938 37.6145281 0.18494034 43.25317383 0.22705078 C43.25909862 1.671219 43.26333133 3.11539422 43.2668457 4.55957031 C43.26938354 5.36379425 43.27192139 6.16801819 43.27453613 6.99661255 C43.25155686 9.39587827 43.05800441 11.72267871 42.75317383 14.10205078 C41.31969253 24.52442318 41.31969253 24.52442318 44.25317383 34.22705078 C46.94905186 36.32384481 48.34611783 36.22215899 51.81567383 36.03955078 C55.76517827 35.11590427 55.76517827 35.11590427 58.25317383 32.22705078 C59.02523985 29.32236499 59.02523985 29.32236499 59.37817383 25.97705078 C59.61213867 24.11886719 59.61213867 24.11886719 59.85083008 22.22314453 C60.41799975 16.92999751 60.73435021 11.62453157 61.00708008 6.30908203 C61.25317383 3.22705078 61.25317383 3.22705078 62.25317383 0.22705078 C114.39317383 0.22705078 166.53317383 0.22705078 220.25317383 0.22705078 C220.98540262 3.88819474 221.45163796 7.10501587 221.68286133 10.78955078 C221.79307617 12.35576172 221.79307617 12.35576172 221.90551758 13.95361328 C222.05392004 16.13538985 222.1945504 18.31770903 222.32739258 20.50048828 C222.40344727 21.54462891 222.47950195 22.58876953 222.55786133 23.66455078 C222.6195752 24.61201172 222.68128906 25.55947266 222.74487305 26.53564453 C223.33439048 29.65708552 224.41456205 31.65219958 226.25317383 34.22705078 C229.3918857 35.79640672 231.79173205 35.57906181 235.25317383 35.22705078 C238.17610047 33.35807336 238.17610047 33.35807336 240.25317383 30.22705078 C240.72078424 27.13189733 240.40650589 24.20141576 240.06567383 21.10205078 C239.92307877 19.49556703 239.78378581 17.88878695 239.64770508 16.28173828 C239.54447685 15.13570633 239.54447685 15.13570633 239.43916321 13.96652222 C239.24488759 11.10500121 239.21487519 8.27886561 239.22851562 5.41113281 C239.23207565 4.43580597 239.23563568 3.46047913 239.23930359 2.45559692 C239.24388077 1.7201767 239.24845795 0.98475647 239.25317383 0.22705078 C245.99735409 0.10018639 252.74122627 0.01267268 259.48632812 -0.04760742 C261.78039041 -0.0727385 264.07437273 -0.10684891 266.36816406 -0.15014648 C269.66727432 -0.21085754 272.96532529 -0.23917359 276.26489258 -0.26123047 C277.28902756 -0.2870369 278.31316254 -0.31284332 279.36833191 -0.33943176 C283.7431523 -0.34115167 286.48765647 -0.2181225 290.31494141 2.00756836 C293.25153705 6.88537245 293.63452968 11.62292832 294.25317383 17.22705078 C294.42298584 18.63371292 294.59408489 20.04022011 294.76626587 21.44659424 C295.36470922 26.42443654 295.91235526 31.40749496 296.46020508 36.39111328 C296.66924086 38.26878474 296.87861441 40.14641862 297.08830261 42.02401733 C297.63985821 46.96901568 298.18780793 51.91440609 298.73468018 56.85992432 C299.70151544 65.59995107 300.67360881 74.33939312 301.64770508 83.07861328 C301.80861822 84.52354031 301.80861822 84.52354031 301.97278214 85.99765778 C303.72707279 101.73285315 305.56980652 117.45627802 307.45576477 133.17617798 C308.77408173 144.16879912 310.06389964 155.16414945 311.31567383 166.16455078 C311.39607281 166.87095766 311.47647179 167.57736454 311.5593071 168.30517769 C311.96140331 171.84028544 312.36269693 175.37548369 312.76351929 178.91073608 C313.61727507 186.43974677 314.47574836 193.96822025 315.33520508 201.49658203 C315.41934977 202.23371744 315.50349445 202.97085285 315.59018898 203.7303257 C317.00631026 216.129161 318.45553711 228.52378689 319.94067383 240.91455078 C320.13364702 242.52766679 320.32659977 244.14078525 320.51953125 245.75390625 C320.89761763 248.91311595 321.27597945 252.07229252 321.65454102 255.23144531 C321.79877502 256.43525848 321.79877502 256.43525848 321.94592285 257.66339111 C322.16105798 259.45844891 322.37631919 261.25349159 322.5916748 263.04852295 C323.30754416 269.01908082 324.01841454 274.99020146 324.72329712 280.96206665 C324.94828483 282.86117631 325.17493939 284.76008938 325.40341187 286.65878296 C325.71834875 289.27739928 326.02743403 291.89664642 326.33520508 294.51611328 C326.42867218 295.28181137 326.52213928 296.04750946 326.61843872 296.83641052 C327.75299841 306.62851984 327.65526034 314.20482589 321.63989258 322.43408203 C316.55870002 328.5067268 311.20269926 332.79846067 303.25317383 334.22705078 C298.86938405 334.52023684 294.49475203 334.50543619 290.10246277 334.49447632 C288.7588608 334.49821585 287.415261 334.50281858 286.07166463 334.50820696 C282.38984805 334.52041488 278.70812249 334.52017912 275.0262903 334.51781821 C271.05139229 334.51740949 267.07652325 334.52845446 263.10163879 334.53793335 C255.31804814 334.55453197 247.53448779 334.56004237 239.75088092 334.56115811 C233.42294427 334.56210908 227.09501761 334.56622182 220.76708412 334.57255936 C202.81905847 334.59016831 184.87105671 334.59939872 166.92302235 334.59789841 C165.95584685 334.5978185 164.98867135 334.59773858 163.9921875 334.59765625 C163.0238287 334.59757449 162.0554699 334.59749273 161.05776689 334.59740849 C145.36420009 334.59659559 129.67072926 334.61573522 113.97719022 334.64393298 C97.85615657 334.67266991 81.73516972 334.68647285 65.61410981 334.68474543 C56.56616144 334.68408183 47.51831369 334.68956105 38.47038841 334.71110153 C30.76696203 334.72932392 23.0636819 334.73365196 15.36024328 334.72008269 C11.43186146 334.71355847 7.50376015 334.71341585 3.57540512 334.73078918 C-0.02531646 334.74654943 -3.62553581 334.74362675 -7.22624537 334.72622092 C-9.13624943 334.72171334 -11.04626926 334.73678519 -12.95621234 334.75270021 C-22.24951581 334.67844947 -30.93862531 333.03525164 -37.74682617 326.22705078 C-42.79413856 320.05811342 -45.11580702 314.83030189 -45.03198242 306.73876953 C-45.02461815 305.62764046 -45.02461815 305.62764046 -45.0171051 304.49406433 C-44.85971172 295.91809738 -43.73887606 287.47767654 -42.58435059 278.98864746 C-41.86668082 273.69777659 -41.18968275 268.40163373 -40.50854492 263.10595703 C-40.36293121 261.97930634 -40.2173175 260.85265564 -40.06729126 259.69186401 C-38.39228463 246.63731205 -36.94804049 233.55799926 -35.49682617 220.47705078 C-32.48292269 193.42416249 -29.2992753 166.39322174 -26.05310154 139.36727428 C-25.51664634 134.90005235 -24.98108293 130.43272391 -24.44604492 125.96533203 C-24.3381835 125.0649074 -24.23032207 124.16448277 -24.11919212 123.23677254 C-22.4158224 109.0000363 -20.76774735 94.7574062 -19.1435051 80.51144028 C-18.39948657 73.99362669 -17.65017529 67.47641844 -16.9013958 60.95915031 C-16.17769639 54.65261939 -15.46358909 48.34509207 -14.75623798 42.03670788 C-14.31466122 38.11874766 -13.86416616 34.20184979 -13.41129112 30.28518105 C-13.20258853 28.46358847 -12.99767084 26.64155767 -12.7968235 24.81908226 C-12.52067046 22.31734011 -12.23116611 19.81748053 -11.93847656 17.31762695 C-11.82389791 16.23457275 -11.82389791 16.23457275 -11.70700455 15.12963867 C-11.12059789 10.28626328 -9.96887749 6.52416016 -7.74682617 2.22705078 C-4.52508368 0.07922245 -3.70345307 -0.0194407 0 0 Z " fill="#4E318E" transform="translate(370.746826171875,270.77294921875)"/>
<path d="M0 0 C0.87688907 -0.00538554 1.75377815 -0.01077108 2.65723962 -0.01631981 C5.58350177 -0.03058024 8.50931033 -0.02350032 11.43559265 -0.01637268 C13.53860334 -0.02207731 15.64161093 -0.02904193 17.74461365 -0.03717041 C23.44927877 -0.05510845 29.15379012 -0.05393194 34.85847497 -0.04822803 C39.62475446 -0.04513652 44.39100439 -0.05122835 49.15727967 -0.05726677 C60.40486084 -0.07131308 71.65236606 -0.06975034 82.89994812 -0.05836487 C94.4930544 -0.04688874 106.0859292 -0.06095071 117.67900497 -0.08776134 C127.64101994 -0.10993507 137.60296234 -0.11655178 147.56500024 -0.11068493 C153.51099355 -0.10731755 159.45683855 -0.10971581 165.40281105 -0.12693596 C170.99664076 -0.14242908 176.59012839 -0.13842298 182.1839447 -0.11963081 C184.23253503 -0.11595125 186.28115082 -0.11903488 188.32971764 -0.1295166 C211.09594374 -0.23707397 211.09594374 -0.23707397 217.97437 6.16697025 C222.49827332 11.06613611 224.31085349 15.00741593 224.33070374 21.73722839 C224.34349869 23.69704651 224.34349869 23.69704651 224.35655212 25.69645691 C224.35585311 27.14268506 224.35493005 28.58891311 224.35380554 30.03514099 C224.3597906 31.55968047 224.3665961 33.08421693 224.37416077 34.60874939 C224.39183315 38.74942969 224.39651675 42.89002733 224.39779234 47.03074169 C224.39921413 49.6191945 224.40348431 52.20762632 224.40878677 54.79607391 C224.42729317 63.83085463 224.43545688 72.86557633 224.43388367 81.90037537 C224.43268303 90.3141744 224.45376852 98.72771658 224.48537099 107.14145064 C224.51155327 114.37048348 224.5222501 121.59943256 224.52097285 128.82851243 C224.52046366 133.14361233 224.52612233 137.45848412 224.54732895 141.77353668 C224.56674359 145.83495639 224.56681402 149.89593122 224.55229568 153.95736694 C224.55021026 155.4440196 224.55489261 156.93070032 224.5670166 158.41730499 C224.63575591 167.43341621 224.65694599 174.65943215 218.0632782 181.4462738 C217.4032782 181.90131287 216.7432782 182.35635193 216.0632782 182.82518005 C215.4032782 183.29826599 214.7432782 183.77135193 214.0632782 184.2587738 C209.42777496 186.87529809 204.5120981 186.535997 199.32200623 186.53485107 C198.42993509 186.53852776 197.53786395 186.54220445 196.61876035 186.54599255 C193.62337247 186.55702387 190.62801929 186.56087229 187.63261414 186.56468201 C185.48739512 186.57094701 183.34217719 186.57759385 181.19696045 186.58459473 C174.14719905 186.60563088 167.09743744 186.61599582 160.0476532 186.6259613 C157.62090799 186.63000885 155.19416289 186.63412577 152.76741791 186.63831139 C141.36788414 186.65736106 129.96835685 186.67159329 118.56881022 186.67992336 C105.40797646 186.68969921 92.24731072 186.7160289 79.08653617 186.75642425 C68.91486332 186.78657425 58.74323867 186.80139113 48.571522 186.80470437 C42.49586041 186.80705587 36.42037839 186.81602983 30.34476471 186.84116554 C24.62871625 186.86443193 18.91296577 186.8686851 13.19688225 186.85840416 C11.10067949 186.85790837 9.00446214 186.8642416 6.90830421 186.87796021 C4.0426743 186.89566328 1.17811567 186.88858055 -1.68751526 186.87542725 C-2.51360173 186.88639649 -3.33968819 186.89736574 -4.19080758 186.90866739 C-10.4417553 186.83957429 -15.78471082 185.29681834 -20.46651006 180.97576696 C-24.8991222 175.94879996 -26.1845662 171.54595023 -26.20414734 164.95584106 C-26.21694229 163.00658218 -26.21694229 163.00658218 -26.22999573 161.01794434 C-26.22929675 159.58479297 -26.22837372 158.1516417 -26.22724915 156.7184906 C-26.23323595 155.20365569 -26.24004185 153.68882383 -26.24760437 152.17399597 C-26.26525707 148.06436548 -26.26995947 143.95481831 -26.27123594 139.84515357 C-26.27265862 137.27562391 -26.27693046 134.70611537 -26.28223038 132.13659096 C-26.30072891 123.16664411 -26.30890129 114.19675667 -26.30732727 105.22679138 C-26.30612622 96.87488682 -26.32722171 88.52324083 -26.3588146 80.17140168 C-26.38499667 72.99330359 -26.39569374 65.81528984 -26.39441645 58.63714439 C-26.39390734 54.35335784 -26.39956196 50.06980109 -26.42077255 45.78606224 C-26.44018738 41.75499691 -26.44025752 37.7243798 -26.42573929 33.69329834 C-26.42365402 32.21793269 -26.42833528 30.74253875 -26.44046021 29.26722145 C-26.50209886 21.24449844 -26.44088592 15.17871608 -21.9367218 8.38768005 C-15.30101512 1.75197337 -9.03140437 -0.06706571 0 0 Z " fill="#FBF9F4" transform="translate(412.9367218017578,331.61231994628906)"/>
<path d="M0 0 C20.73802287 16.94101326 33.17859147 38.75520646 36.73291016 65.27734375 C37.37603766 71.83324677 37.65958331 78.42267996 38 85 C38.63147446 84.99333817 39.26294891 84.98667633 39.91355896 84.97981262 C46.51645795 84.91317735 53.1192606 84.86808275 59.72241211 84.83520508 C62.18306359 84.8201666 64.64368849 84.79973058 67.10424805 84.77368164 C70.65159692 84.73708144 74.19858977 84.72022365 77.74609375 84.70703125 C78.8370787 84.69154739 79.92806366 84.67606354 81.05210876 84.66011047 C90.01620942 84.65815814 97.75845604 85.8852172 104.44839478 92.23773193 C110.98386083 99.66052411 112.07149948 107.65233468 113.0390625 117.234375 C113.19613113 118.64391213 113.35516862 120.05323104 113.51602173 121.46234131 C113.85398509 124.44552498 114.18143328 127.42959636 114.50109863 130.41479492 C114.98888123 134.94245507 115.51745396 139.46465192 116.05761719 143.98632812 C116.23835496 145.50125988 116.41907997 147.01619316 116.59979248 148.53112793 C116.69009483 149.288004 116.78039719 150.04488007 116.87343597 150.82469177 C117.34119102 154.76390428 117.79959199 158.70420003 118.2578125 162.64453125 C118.35011517 163.43805748 118.44241783 164.23158371 118.53751755 165.04915619 C118.72403807 166.65294536 118.91052719 168.25673819 119.09698486 169.86053467 C119.46213372 172.99889088 119.82848091 176.13710662 120.19488716 179.27531624 C121.91923692 194.04526789 123.6360242 208.81606403 125.33154297 223.58935547 C127.93924428 246.29740229 130.5849879 269.00041716 133.28701532 291.69741201 C133.90879931 296.92156514 134.52864289 302.14594563 135.14718628 307.3704834 C135.27899975 308.48380594 135.27899975 308.48380594 135.41347611 309.61961985 C135.8593816 313.38641473 136.30503897 317.15323888 136.75053596 320.92008209 C137.65948916 328.60265058 138.57259189 336.28469331 139.49365234 343.96582031 C140.31682969 350.8308742 141.13246699 357.69677795 141.93949473 364.56374967 C142.36099247 368.14797912 142.78592793 371.73171198 143.22025681 375.31441116 C148.96981465 422.80611096 148.96981465 422.80611096 135 441 C126.33139117 450.45812896 114.68898601 456.14863844 101.88099682 457.27406371 C98.40311501 457.38142418 94.93713965 457.39524593 91.45765686 457.3742218 C90.12027704 457.37696798 88.78289939 457.38102482 87.44552702 457.38626546 C83.7993511 457.39677972 80.15342294 457.38877091 76.50725806 457.37751496 C72.56375269 457.36862846 68.6202782 457.37712929 64.67677307 457.38337708 C56.96254732 457.39284156 49.24841544 457.3862857 41.53419668 457.37411413 C32.54143653 457.36045677 23.54869844 457.36213532 14.55593055 457.36424746 C-1.4955284 457.36743397 -17.5469429 457.35578947 -33.59838867 457.33618164 C-49.15601963 457.31718215 -64.7135985 457.3100937 -80.27124023 457.31567383 C-97.23137984 457.32173904 -114.19149656 457.32154071 -131.15163428 457.310188 C-132.96203172 457.30898077 -134.77242917 457.30777478 -136.58282661 457.30657005 C-137.47346493 457.30596651 -138.36410325 457.30536298 -139.2817306 457.30474115 C-145.54248244 457.30087035 -151.80322574 457.30125238 -158.0639782 457.3031559 C-165.69988522 457.30528356 -173.33574676 457.30001076 -180.971641 457.28554235 C-184.86376137 457.27832549 -188.75581568 457.27419804 -192.64794159 457.27878571 C-196.21764854 457.28289081 -199.78721967 457.27761603 -203.35690612 457.26515963 C-205.24534008 457.26088937 -207.13378847 457.26629032 -209.02221817 457.27214891 C-225.34827755 457.1890431 -238.66112217 454.13846071 -250.7421875 442.54296875 C-260.54399743 431.50321396 -263.92724772 418.67149592 -263.15870667 404.15562439 C-262.87793156 400.3420123 -262.33589416 396.56792045 -261.8125 392.78125 C-260.27748071 381.32963348 -258.86657702 369.86450258 -257.4765625 358.39453125 C-257.36247417 357.45321035 -257.24838585 356.51188946 -257.1308403 355.54204369 C-256.53573367 350.62898427 -255.94179508 345.71578476 -255.34863281 340.80249023 C-254.87100244 336.84661339 -254.39217573 332.89088469 -253.91210938 328.93530273 C-251.30851533 307.48171379 -248.75266825 286.02416086 -246.33045387 264.54929352 C-243.48304054 239.30952843 -240.5290726 214.08216684 -237.57539058 188.85466188 C-236.72445638 181.58668832 -235.87556055 174.3184804 -235.02834255 167.05007273 C-234.36067356 161.32314378 -233.69117654 155.59643032 -233.02031964 149.86987394 C-232.62460148 146.49161299 -232.22960616 143.11327177 -231.83657265 139.73469734 C-231.40150005 135.99872903 -230.96343136 132.26312315 -230.5246582 128.52758789 C-230.3994429 127.44655792 -230.2742276 126.36552795 -230.1452179 125.2517395 C-226.91613229 97.89627154 -226.91613229 97.89627154 -217.29296875 89.54296875 C-210.08810068 84.69471852 -204.01177413 84.59198473 -195.50390625 84.70703125 C-193.72088356 84.71339851 -193.72088356 84.71339851 -191.90184021 84.71989441 C-188.12182543 84.73662749 -184.34235245 84.7742711 -180.5625 84.8125 C-177.99284627 84.82755372 -175.42318414 84.84124092 -172.85351562 84.85351562 C-166.56882695 84.88651352 -160.28445219 84.93665996 -154 85 C-154.00557419 84.33663132 -154.01114838 83.67326263 -154.01689148 82.98979187 C-154.1504854 55.79264453 -145.75522662 31.62532664 -128 11 C-127.42765625 10.32453125 -126.8553125 9.6490625 -126.265625 8.953125 C-94.11109747 -25.85332232 -36.82621319 -28.50900042 0 0 Z M-209 109 C-209.96642399 112.07692846 -210.30396197 115.15126032 -210.63623047 118.35180664 C-210.8064462 119.73767644 -210.8064462 119.73767644 -210.98010063 121.15154362 C-211.21844695 123.11189378 -211.44722714 125.07342758 -211.66707611 127.03593826 C-211.98775025 129.890939 -212.33454835 132.74133707 -212.69146729 135.5920105 C-213.42870952 141.51519093 -214.12562799 147.44279504 -214.8203125 153.37109375 C-215.08256879 155.59314291 -215.34503056 157.81516783 -215.60768127 160.03717041 C-216.30549665 165.94668172 -217.00000055 171.85657766 -217.69375229 177.76656723 C-218.27549097 182.71853228 -218.85929085 187.67025355 -219.44302654 192.62198353 C-222.15556943 215.63564203 -224.85545892 238.65074371 -227.50390625 261.671875 C-227.59773401 262.48732159 -227.69156178 263.30276817 -227.7882328 264.14292526 C-228.59896001 271.19137224 -229.40839102 278.23996627 -230.21292114 285.28912354 C-232.20922509 302.77957284 -234.26110474 320.26150887 -236.41604424 337.73319817 C-236.77156673 340.61763452 -237.12585864 343.50221938 -237.47975159 346.38685608 C-237.71344882 348.29086569 -237.9471676 350.19487266 -238.1809082 352.09887695 C-238.2958793 353.03555741 -238.41085039 353.97223787 -238.52930546 354.93730259 C-239.20264371 360.41399395 -239.8855706 365.88938075 -240.57603836 371.36393738 C-241.00145093 374.75324456 -241.41838569 378.14355966 -241.83334732 381.53416061 C-242.02578268 383.09132002 -242.22176555 384.64804646 -242.42184067 386.20424271 C-243.45285807 394.23455743 -244.17203782 402.16803462 -244.22241211 410.27026367 C-244.22952241 410.97554608 -244.23663271 411.6808285 -244.24395847 412.4074831 C-244.19624116 419.57480915 -242.30833385 423.39572591 -237.5625 428.75 C-236.2940625 429.86375 -236.2940625 429.86375 -235 431 C-234.236875 431.70125 -233.47375 432.4025 -232.6875 433.125 C-225.05257471 438.45169206 -217.74275661 438.42967247 -208.7223053 438.38095093 C-207.37712632 438.38441131 -206.03195017 438.38917842 -204.68677992 438.39513266 C-201.00523936 438.40762036 -197.32393304 438.40148253 -193.6423918 438.39217401 C-189.66616544 438.3853746 -185.6899788 438.3958692 -181.71376038 438.40411377 C-173.92995081 438.41744416 -166.14622809 438.41457635 -158.36241514 438.40587585 C-152.0349677 438.39909649 -145.70754456 438.39818367 -139.38009453 438.4014473 C-138.47900919 438.401907 -137.57792385 438.40236669 -136.6495329 438.40284032 C-134.81889474 438.40379952 -132.9882566 438.40477216 -131.15761846 438.4057581 C-113.99677389 438.41431008 -96.83597741 438.40448111 -79.67514073 438.388357 C-64.95731257 438.37495627 -50.2395554 438.37728026 -35.52172852 438.39111328 C-18.42319951 438.4071764 -1.32471266 438.41348373 15.77382284 438.40427649 C17.59797481 438.40332086 19.42212678 438.40237775 21.24627876 438.4014473 C22.59248922 438.40075306 22.59248922 438.40075306 23.96589584 438.40004479 C30.28363445 438.39745693 36.60134627 438.40182155 42.91908073 438.40888596 C50.62140292 438.41730938 58.32363341 438.4150032 66.02594512 438.39904372 C69.95415888 438.39117199 73.88221989 438.38805058 77.81043243 438.39799118 C81.40976345 438.40696159 85.00880081 438.40196695 88.60810537 438.38605852 C90.51978048 438.38114509 92.43147614 438.39088631 94.34312958 438.40123022 C105.61102626 438.32448151 112.60643942 436.24388996 120.828125 428.41796875 C125.01511405 423.75655468 128.06104643 418.12430194 127.93644714 411.74742126 C127.29383481 402.34610708 126.43782206 392.99220792 125.36328125 383.62890625 C125.20153524 382.19442995 125.04009039 380.75991967 124.87892151 379.32537842 C124.4505583 375.52313127 124.01692105 371.72150441 123.58187103 367.92001724 C123.30981122 365.53896799 123.0393256 363.15774495 122.76934814 360.77645874 C120.33791744 339.33408392 117.81238664 317.90526595 115.15185547 296.48999023 C112.65943077 276.40950605 110.35641943 256.30805723 108.05636597 236.20477295 C107.31032205 229.68889986 106.55633239 223.17402216 105.79296875 216.66015625 C105.69649551 215.83580078 105.60002228 215.01144531 105.50062561 214.16210938 C105.11268832 210.84786065 104.72468352 207.53362231 104.33425903 204.21966553 C103.01668579 193.02826795 101.75731619 181.83137982 100.54177856 170.62849426 C99.92529537 164.94697021 99.30167489 159.26623355 98.67710686 153.58559322 C98.1444234 148.73354602 97.62161475 143.88056004 97.10578156 139.0266943 C96.77913237 135.97510262 96.44325392 132.9245758 96.10500336 129.87425041 C95.94826929 128.44335624 95.79536976 127.01203608 95.64658356 125.58029366 C94.73183554 115.3805703 94.73183554 115.3805703 91 106 C87.77825751 103.85217167 86.9566269 103.75350852 83.25317383 103.77294922 C82.29240433 103.77310028 81.33163483 103.77325134 80.3417511 103.77340698 C79.30729355 103.78372955 78.272836 103.79405212 77.20703125 103.8046875 C75.61528328 103.80893234 75.61528328 103.80893234 73.99137878 103.81326294 C70.59830503 103.82446816 67.20549413 103.84957353 63.8125 103.875 C61.51367568 103.88502935 59.21484724 103.89415528 56.91601562 103.90234375 C51.27725389 103.92440859 45.63864572 103.95788956 40 104 C39.98924502 105.72801342 39.98164928 107.45604665 39.9753418 109.18408203 C39.97076462 110.14637726 39.96618744 111.10867249 39.96147156 112.10012817 C39.9969787 114.77259962 40.15485019 117.39376651 40.39453125 120.0546875 C40.46220703 120.85390625 40.52988281 121.653125 40.59960938 122.4765625 C40.74376143 124.10058751 40.90576523 125.7231097 41.08398438 127.34375 C41.42435797 131.74352655 41.46800788 133.37303082 38.734375 137.03515625 C35.1871253 139.58410854 33.27948264 139.70027898 29 139 C25.92815428 136.57485864 24.18906571 134.58030703 23.71875 130.64916992 C23.6465625 129.68599854 23.574375 128.72282715 23.5 127.73046875 C23.4175 126.67666016 23.335 125.62285156 23.25 124.53710938 C23.1675 123.43173828 23.085 122.32636719 23 121.1875 C22.8360676 119.01411495 22.66949341 116.84092719 22.5 114.66796875 C22.4278125 113.70141357 22.355625 112.7348584 22.28125 111.73901367 C22.00319092 108.60459956 22.00319092 108.60459956 21 104 C-31.14 104 -83.28 104 -137 104 C-138.00547031 107.01641093 -138.25669634 109.42423698 -138.46484375 112.5859375 C-138.58182617 114.22949219 -138.58182617 114.22949219 -138.70117188 115.90625 C-138.85817627 118.21071114 -139.01184594 120.515402 -139.16210938 122.8203125 C-139.24138672 123.91859375 -139.32066406 125.016875 -139.40234375 126.1484375 C-139.46929443 127.15052246 -139.53624512 128.15260742 -139.60522461 129.18505859 C-140.14435859 133.02934725 -141.07553196 135.97281329 -143.6875 138.875 C-147.10144385 140.53583755 -149.38757223 139.91952707 -153 139 C-155.05938216 137.42114034 -155.84571211 136.30857577 -157 134 C-157.36231529 127.86195268 -156.9990261 121.77017595 -156.21875 115.6796875 C-156.01714521 113.21002883 -155.97851368 110.80886021 -155.98632812 108.33251953 C-155.988302 107.52138702 -155.99027588 106.71025452 -155.99230957 105.87454224 C-155.99484741 105.2559433 -155.99738525 104.63734436 -156 104 C-162.74418027 103.87313561 -169.48805244 103.78562189 -176.2331543 103.7253418 C-178.52721658 103.70021072 -180.8211989 103.66610031 -183.11499023 103.62280273 C-186.41410049 103.56209168 -189.71215146 103.53377563 -193.01171875 103.51171875 C-194.03585373 103.48591232 -195.05998871 103.4601059 -196.11515808 103.43351746 C-197.07577652 103.4331398 -198.03639496 103.43276215 -199.02612305 103.43237305 C-199.86773483 103.42126999 -200.70934662 103.41016693 -201.57646179 103.39872742 C-205.32125055 104.32779831 -206.69444052 105.93214381 -209 109 Z " fill="#FBF8F4" transform="translate(570,167)"/>
<path d="M0 0 C1.21486383 0.00669217 1.21486383 0.00669217 2.45427036 0.01351953 C3.31211408 0.01039954 4.16995779 0.00727956 5.05379677 0.00406504 C7.94508778 -0.00394947 10.83617093 0.00242206 13.72746372 0.00869775 C15.79345416 0.00598942 17.85944363 0.00242938 19.92543125 -0.00192237 C25.54925863 -0.01106743 31.17301291 -0.00749341 36.79684162 -0.0011642 C42.67093452 0.00388487 48.54502098 -0.00079259 54.41911411 -0.00393653 C64.28525515 -0.00757938 74.15136628 -0.00276873 84.01750278 0.00674462 C95.43848568 0.01762977 106.85939718 0.01410442 118.28037834 0.00309181 C128.07060865 -0.005972 137.86081742 -0.00727078 147.65105057 -0.00203085 C153.50515698 0.00109385 159.3592298 0.00148455 165.21333408 -0.00510383 C170.71588212 -0.01086352 176.21833773 -0.00690573 181.72087574 0.00468469 C183.74540777 0.00733867 185.76994751 0.00655369 187.79447651 0.00215936 C190.54820571 -0.00326853 193.30163475 0.00350427 196.05534458 0.01351953 C196.8652538 0.00905808 197.67516302 0.00459664 198.50961494 0 C204.0265074 0.03918674 204.0265074 0.03918674 206.25480747 2.26748681 C206.50090313 4.48137116 206.50090313 4.48137116 206.49531651 7.29144311 C206.4994405 8.88584222 206.4994405 8.88584222 206.5036478 10.51245141 C206.49286198 12.26895516 206.49286198 12.26895516 206.48185825 14.06094384 C206.48215031 15.29018579 206.48244236 16.51942773 206.48274326 17.78591943 C206.48158653 21.16182172 206.47153837 24.53748106 206.45759535 27.91334033 C206.44511465 31.43941211 206.4439196 34.96548693 206.44154453 38.49157739 C206.43532191 45.17099356 206.41890057 51.85034447 206.39884555 58.52973187 C206.37651082 66.13301013 206.36549924 73.73629147 206.35545468 81.33959436 C206.33453499 96.98226301 206.29934388 112.6248665 206.25480747 128.26748681 C201.08544162 123.94457111 196.26071097 119.4069759 191.51530552 114.62564111 C190.77622456 113.88509988 190.03714359 113.14455865 189.27566624 112.38157678 C187.68296966 110.78509526 186.09142866 109.18746023 184.50093746 107.5887816 C181.98604224 105.06106618 179.46798648 102.53653773 176.94909763 100.01280236 C171.61068644 94.6629997 166.27622528 89.30926903 160.94230747 83.95498681 C154.74328224 77.73237901 148.54265836 71.51138199 142.33782482 65.29456544 C139.85292384 62.80316567 137.3710437 60.3087827 134.88925266 57.81428552 C133.37542771 56.29683029 131.86146345 54.77951402 130.34733677 53.26235986 C129.65486851 52.56472528 128.96240025 51.86709069 128.2489481 51.14831567 C127.61683918 50.51613626 126.98473026 49.88395684 126.33346653 49.23262048 C125.78395171 48.68088505 125.23443689 48.12914962 124.66827011 47.56069493 C121.90198796 45.02976242 119.14062224 44.73813253 115.43791294 44.81007409 C112.78072578 45.36681824 111.69108905 46.25418667 109.70011997 48.08609033 C109.00483189 48.724992 108.3095438 49.36389367 107.59318638 50.022156 C102.91868647 54.51064956 98.32523654 59.07604007 93.75480747 63.66983056 C92.66786945 64.75863785 91.58070733 65.84722147 90.49333286 66.93559289 C87.65697524 69.77573571 84.82363583 72.61887041 81.99095249 75.46267724 C79.08986494 78.37406572 76.18588034 81.28256148 73.28215122 84.19131494 C67.60355929 89.88057351 61.92815831 95.5730018 56.25480747 101.26748681 C52.69534499 98.93580022 49.53027971 96.76290008 46.62980747 93.64248681 C43.40795677 90.17861915 41.06296917 88.48427563 36.28996372 87.91201806 C32.54225952 88.35093837 31.38133129 89.35014113 28.69230747 91.95498681 C27.83765903 92.77096337 26.9830106 93.58693994 26.10246372 94.42764306 C25.15085585 95.37185589 24.20177791 96.31862307 23.25480747 97.26748681 C22.46565952 98.05421777 22.46565952 98.05421777 21.66056919 98.85684228 C19.4148888 101.09855854 17.17281962 103.34366537 14.94108677 105.59927392 C11.47863077 109.08944189 7.9266705 112.39066459 4.17277622 115.56826806 C0.97314069 118.40297571 -1.97972786 121.48272981 -4.96003628 124.54483056 C-6.74519253 126.26748681 -6.74519253 126.26748681 -7.74519253 126.26748681 C-7.79186822 110.13444567 -7.82715958 94.00142636 -7.84881687 77.86833405 C-7.85913903 70.37782689 -7.87321723 62.88736162 -7.89607143 55.39688134 C-7.91597664 48.86983737 -7.92890213 42.34282373 -7.93336952 35.81575024 C-7.93598179 32.35820909 -7.94214108 28.90075475 -7.95665264 25.44324136 C-7.97270326 21.58792745 -7.97317406 17.73269924 -7.97224331 13.87735009 C-7.97943386 12.72504907 -7.98662441 11.57274804 -7.99403286 10.3855288 C-7.99128353 9.33942437 -7.9885342 8.29331994 -7.98570156 7.21551538 C-7.98754515 6.30294032 -7.98938873 5.39036527 -7.99128819 4.45013642 C-7.43923215 -0.44610962 -4.14142857 0.02941675 0 0 Z " fill="#4D318E" transform="translate(412.745192527771,350.7325131893158)"/>
<path d="M0 0 C18.78461897 13.39163377 27.9084511 33.37114065 31.75244141 55.52294922 C32.46634798 61.00266454 32.29150391 66.29894095 32.29150391 71.86669922 C-18.85849609 71.86669922 -70.00849609 71.86669922 -122.70849609 71.86669922 C-120.03301776 43.77417676 -115.50272679 25.19161063 -95.70849609 5.86669922 C-95.10392578 5.25310547 -94.49935547 4.63951172 -93.87646484 4.00732422 C-68.58059422 -19.81562229 -27.66049773 -18.34810381 0 0 Z " fill="#4D318E" transform="translate(556.70849609375,180.13330078125)"/>
<path d="M0 0 C3.03546936 1.35884593 5.1344558 2.88501018 7.48016357 5.23292542 C8.1503804 5.89894775 8.82059723 6.56497009 9.51112366 7.25117493 C10.59761452 8.34609505 10.59761452 8.34609505 11.70605469 9.46313477 C12.47717087 10.2323526 13.24828705 11.00157043 14.04277039 11.7940979 C16.59071779 14.33833989 19.13139284 16.8897117 21.671875 19.44140625 C23.43699303 21.20771606 25.20248053 22.97365674 26.96832275 24.73924255 C30.66671944 28.43920358 34.36185743 32.1423865 38.05419922 35.84838867 C42.32824501 40.13818798 46.60752333 44.42270984 50.88981891 48.70427281 C55.00677765 52.82062226 59.12082289 56.93987007 63.23337555 61.06062126 C64.98556335 62.81600219 66.73836716 64.57076844 68.49178314 66.32492256 C70.93423022 68.76952464 73.37336343 71.21738289 75.81152344 73.66625977 C76.5439476 74.39823074 77.27637177 75.13020172 78.0309906 75.88435364 C78.68992813 76.54755615 79.34886566 77.21075867 80.027771 77.89405823 C80.60514889 78.47311196 81.18252678 79.0521657 81.77740097 79.64876652 C83 81 83 81 83 82 C16.01 82 -50.98 82 -120 82 C-114.45041773 75.34050127 -114.45041773 75.34050127 -111.3828125 72.82421875 C-105.37145136 67.69439227 -99.9326708 61.96297563 -94.41259766 56.31665039 C-92.98529174 54.8589406 -91.55165501 53.40768945 -90.1171875 51.95703125 C-89.27784668 51.10085205 -88.43850586 50.24467285 -87.57373047 49.36254883 C-84.84494351 46.85766632 -82.12608036 44.97138407 -79 43 C-78.18015625 43.77085937 -77.3603125 44.54171875 -76.515625 45.3359375 C-75.42730723 46.34919887 -74.3387531 47.36220641 -73.25 48.375 C-72.44175781 49.13683594 -72.44175781 49.13683594 -71.6171875 49.9140625 C-67.83020569 53.42394808 -65.1669463 55.77427643 -60 56.3125 C-56.6610545 55.96469318 -55.49611088 55.13952361 -53 53 C-52.34 53 -51.68 53 -51 53 C-50.76745514 52.44213806 -50.53491028 51.88427612 -50.2953186 51.30950928 C-48.66299793 48.3991367 -46.64179046 46.40260179 -44.27490234 44.04785156 C-43.79668533 43.5693425 -43.31846832 43.09083344 -42.82575989 42.5978241 C-41.25051517 41.02396805 -39.66831465 39.45730707 -38.0859375 37.890625 C-36.98976787 36.79818714 -35.89404019 35.70530566 -34.79873657 34.61199951 C-31.91960112 31.74048758 -29.03450944 28.87503346 -26.14813232 26.01080322 C-23.20190185 23.08505874 -20.26134931 20.15361986 -17.3203125 17.22265625 C-11.55241412 11.47618518 -5.77821036 5.73610194 0 0 Z " fill="#4D308D" transform="translate(529,417)"/>
<path d="M0 0 C8.58 0 17.16 0 26 0 C31.69467987 10.89575988 36.36033661 22.14981784 41.0625 33.5 C41.85963573 35.41552706 42.65715934 37.33089274 43.45507812 39.24609375 C44.97239279 42.88919197 46.48597345 46.53380397 47.99658203 50.1796875 C49.21023638 53.10647954 50.43222295 56.02923123 51.67138672 58.9453125 C52.12916504 60.02554688 52.58694336 61.10578125 53.05859375 62.21875 C53.44200928 63.11529297 53.8254248 64.01183594 54.22045898 64.93554688 C55 67 55 67 55 69 C55.66 69 56.32 69 57 69 C57.10779785 68.32267822 57.2155957 67.64535645 57.32666016 66.94750977 C58.13191685 63.42254092 59.40939691 60.17572199 60.7734375 56.83984375 C61.05327988 56.14507431 61.33312225 55.45030487 61.6214447 54.73448181 C62.53542867 52.46723781 63.45521206 50.20239483 64.375 47.9375 C65.64902075 44.78331139 66.92017956 41.62797179 68.19140625 38.47265625 C68.51149155 37.67935913 68.83157684 36.88606201 69.16136169 36.06872559 C71.24886716 30.88863289 73.30786324 25.69820825 75.33984375 20.49609375 C75.72332977 19.51469673 75.72332977 19.51469673 76.11456299 18.51347351 C77.31688169 15.43350015 78.5152564 12.35203297 79.71044922 9.26928711 C80.13213379 8.18784424 80.55381836 7.10640137 80.98828125 5.9921875 C81.35477783 5.04714355 81.72127441 4.10209961 82.09887695 3.12841797 C83 1 83 1 84 0 C92.58 0 101.16 0 110 0 C110 34.32 110 68.64 110 104 C103.07 104 96.14 104 89 104 C88.67 83.87 88.34 63.74 88 43 C76.27069741 67.89606071 76.27069741 67.89606071 65 93 C58.73 93 52.46 93 46 93 C43.86689443 88.3454808 41.73445278 83.69066727 39.60351562 79.03515625 C38.88251887 77.46044829 38.16117952 75.88589713 37.43945312 74.31152344 C36.38575371 72.01281047 35.33340355 69.71348338 34.28125 67.4140625 C33.97255981 66.74138336 33.66386963 66.06870422 33.3458252 65.37564087 C29.49289559 56.94781246 25.76428167 48.46963377 22 40 C21.67 61.12 21.34 82.24 21 104 C14.07 104 7.14 104 0 104 C0 69.68 0 35.36 0 0 Z " fill="#FBF9F4" transform="translate(125,679)"/>
<path d="M0 0 C9.30503746 4.33449846 14.84417792 10.4552464 18.734375 19.859375 C22.32714645 30.135474 22.37207554 44.74802758 18.3359375 54.8125 C16.93359375 57.53125 16.93359375 57.53125 15.4609375 59.9375 C14.80931641 61.06671875 14.80931641 61.06671875 14.14453125 62.21875 C9.752278 68.92600853 3.28702068 72.4343959 -4.0390625 75.3125 C-12.5447595 76.83137446 -19.9368943 76.39658689 -27.5390625 71.9375 C-29.1890625 70.2875 -30.8390625 68.6375 -32.5390625 66.9375 C-32.8690625 78.8175 -33.1990625 90.6975 -33.5390625 102.9375 C-39.8090625 102.9375 -46.0790625 102.9375 -52.5390625 102.9375 C-52.5390625 68.9475 -52.5390625 34.9575 -52.5390625 -0.0625 C-46.2690625 -0.0625 -39.9990625 -0.0625 -33.5390625 -0.0625 C-33.2090625 2.2475 -32.8790625 4.5575 -32.5390625 6.9375 C-32.00796875 6.52757812 -31.476875 6.11765625 -30.9296875 5.6953125 C-29.87007812 4.88707031 -29.87007812 4.88707031 -28.7890625 4.0625 C-27.74492188 3.26199219 -27.74492188 3.26199219 -26.6796875 2.4453125 C-19.10667404 -2.8889634 -8.70705463 -2.61403848 0 0 Z " fill="#FBF9F4" transform="translate(882.5390625,709.0625)"/>
<path d="M0 0 C6.75308082 4.02914906 10.96246998 9.43185106 13.375 16.9375 C13.375 19.2475 13.375 21.5575 13.375 23.9375 C7.105 23.9375 0.835 23.9375 -5.625 23.9375 C-6.285 21.6275 -6.945 19.3175 -7.625 16.9375 C-11.30615537 14.48339642 -13.27793598 14.70462157 -17.625 14.9375 C-18.615 15.2675 -19.605 15.5975 -20.625 15.9375 C-22.31794817 21.01634452 -22.78777079 26.22590014 -20.63671875 31.2421875 C-17.1960609 36.6890881 -12.68520666 41.06509549 -8.078125 45.52734375 C-4.71825822 48.82835936 -1.67851431 52.35604163 1.375 55.9375 C2.68567243 57.43909716 3.99813997 58.93912957 5.3125 60.4375 C6.33333333 61.60416667 7.35416667 62.77083333 8.375 63.9375 C11.05595324 58.3318705 12.28487395 53.05897704 13.375 46.9375 C19.315 46.9375 25.255 46.9375 31.375 46.9375 C31.375 55.94238334 31.375 55.94238334 30.60546875 58.90234375 C30.43942139 59.55243408 30.27337402 60.20252441 30.10229492 60.87231445 C29.83509644 61.8636438 29.83509644 61.8636438 29.5625 62.875 C29.38887939 63.57520264 29.21525879 64.27540527 29.03637695 64.99682617 C28.05978258 68.82897003 26.79931103 72.21252459 25.0625 75.75 C24.20521948 77.77356465 24.20521948 77.77356465 24.375 79.9375 C26.83592459 84.10824813 30.06065283 87.43203721 33.375 90.9375 C34.75158411 92.60676325 36.10838263 94.29270078 37.4375 96 C38.00597656 96.71285156 38.57445312 97.42570313 39.16015625 98.16015625 C40.375 99.9375 40.375 99.9375 40.375 101.9375 C36.66748633 102.14177691 32.96142528 102.26544588 29.25 102.375 C28.20328125 102.43365234 27.1565625 102.49230469 26.078125 102.55273438 C18.40318157 102.72274894 18.40318157 102.72274894 15.29394531 100.34814453 C13.80459275 98.61056654 12.53729871 96.90605229 11.375 94.9375 C10.4571875 95.41960937 9.539375 95.90171875 8.59375 96.3984375 C-3.63627501 102.73789241 -14.96756003 106.47349276 -28.875 102.8125 C-38.08698528 99.58232334 -44.01908402 94.52480098 -48.625 85.9375 C-51.81028923 79.2773498 -51.54781521 71.25377035 -49.5 64.25 C-46.50668019 56.40302611 -40.62196219 50.61509734 -34.625 44.9375 C-35.62398325 42.93057401 -36.62967365 40.92847016 -37.66015625 38.9375 C-37.99917969 38.2775 -38.33820313 37.6175 -38.6875 36.9375 C-39.02910156 36.2775 -39.37070312 35.6175 -39.72265625 34.9375 C-42.48671477 28.81110189 -42.7727626 21.63822989 -40.7890625 15.2421875 C-37.42191309 7.85253746 -32.57081546 2.94105027 -25.35546875 -0.72265625 C-17.4752223 -3.55294372 -7.67725873 -3.52990803 0 0 Z " fill="#FBF9F4" transform="translate(535.625,681.0625)"/>
<path d="M0 0 C8.95267084 6.89772392 13.6196666 14.73577842 15.6875 25.875 C16.7569837 37.74869976 15.50989042 47.96835474 8.4765625 57.7734375 C1.56329297 65.89426503 -8.45575355 71.20935898 -19.125 72.11328125 C-30.35561127 72.37477833 -39.66885859 70.17704359 -48.34765625 62.78515625 C-51.49053272 59.72975546 -54.0432283 56.6272304 -56.3125 52.875 C-56.72628906 52.194375 -57.14007813 51.51375 -57.56640625 50.8125 C-62.29305932 41.32625551 -61.99419069 27.78369135 -58.8125 17.8125 C-54.05591574 7.10186972 -46.54413053 0.29509294 -35.83984375 -4.15234375 C-23.96174303 -8.23720565 -10.56324545 -6.89811938 0 0 Z " fill="#FBF8F4" transform="translate(306.3125,713.125)"/>
<path d="M0 0 C9.21970035 6.79346342 14.96343143 15.11153259 17.25 26.375 C18.16909941 37.08778169 16.82847124 47.77602029 10.5 56.75 C3.56453931 64.96852092 -4.07398818 70.24790087 -14.75 72.375 C-27.0668383 73.14146027 -37.10469814 71.43614021 -46.91796875 63.65625 C-53.4769873 57.65099474 -58.14691432 49.32421069 -58.92700195 40.33544922 C-59.47256432 21.14295627 -59.47256432 21.14295627 -54.75 13.375 C-54.32589844 12.67375 -53.90179687 11.9725 -53.46484375 11.25 C-41.64662622 -6.13166813 -17.96177423 -11.12949867 0 0 Z " fill="#FBF8F4" transform="translate(802.75,712.625)"/>
<path d="M0 0 C5.2395442 4.4169921 8.33045931 10.40040386 10 17 C10 19.31 10 21.62 10 24 C3.4 24 -3.2 24 -10 24 C-11.32 21.36 -12.64 18.72 -14 16 C-18.31595544 12.95238244 -21.91580073 12.61436869 -27.125 12.6875 C-28.32382812 12.69136719 -29.52265625 12.69523438 -30.7578125 12.69921875 C-33.81378313 12.98272446 -35.50153077 13.27870438 -38 15 C-40.01471597 18.02207395 -40.33719034 18.91726699 -40.4375 22.375 C-40.47746094 23.12523437 -40.51742187 23.87546875 -40.55859375 24.6484375 C-39.71687579 28.19189353 -37.71341677 29.63161268 -35 32 C-31.90550763 33.46758221 -31.90550763 33.46758221 -28.484375 34.46484375 C-27.23269531 34.87283203 -25.98101563 35.28082031 -24.69140625 35.70117188 C-23.3781252 36.11493865 -22.06431811 36.52703933 -20.75 36.9375 C-9.13151804 40.57389629 1.98990512 44.35844614 9 55 C12.52672655 61.88436346 12.29903522 73.11025226 10 80.4375 C5.87418385 89.11130884 -1.15674191 94.70110435 -10 98 C-21.88439167 102.04665666 -35.36662396 100.85904488 -46.7265625 95.78125 C-55.35958786 91.08655343 -60.73580412 84.42541042 -63.58984375 75.04296875 C-64 73 -64 73 -64 69 C-60.60533263 68.76684361 -57.21272038 68.62535375 -53.8125 68.5 C-52.85279297 68.43296875 -51.89308594 68.3659375 -50.90429688 68.296875 C-48.06731566 68.21834265 -45.74041245 68.24761883 -43 69 C-41.21680595 70.88827801 -40.1973948 72.72274786 -39.03613281 75.03857422 C-37.533725 77.88267045 -35.97257421 78.85299787 -33 80 C-29.39571872 80.47397888 -29.39571872 80.47397888 -25.5625 80.375 C-23.64630859 80.38660156 -23.64630859 80.38660156 -21.69140625 80.3984375 C-17.75354859 79.9733989 -15.34046704 79.09578639 -12 77 C-9.30056717 72.95085076 -9.24436089 69.75213041 -10 65 C-14.36022809 57.89444312 -24.30242625 56.15258463 -31.83203125 53.78515625 C-42.36780022 50.46199857 -52.8889522 46.82204713 -59 37 C-62.4779155 30.03094498 -63.43221691 22.08153798 -61.30859375 14.546875 C-60.36548549 12.22659192 -59.28926141 10.14604906 -58 8 C-57.63390625 7.38382813 -57.2678125 6.76765625 -56.890625 6.1328125 C-51.94595782 -0.7347808 -42.48350101 -5.15904322 -34.35546875 -6.68359375 C-22.22020129 -7.8278972 -10.41133028 -6.87989487 0 0 Z " fill="#FAF8F3" transform="translate(643,685)"/>
<path d="M0 0 C6.6 0 13.2 0 20 0 C20.33 18.48 20.66 36.96 21 56 C33.14801591 42.92026718 33.14801591 42.92026718 37.75 34.5625 C40.1718018 31.43221698 41.89563205 30.17804375 45.82275391 29.54492188 C53.23380731 29.05664354 60.60484494 29.4001661 68 30 C63.67296612 36.00327224 58.97674456 41.38286433 53.85546875 46.7109375 C49.88114845 50.90341858 46.37734955 55.31430783 43 60 C43.63164062 60.97195313 44.26328125 61.94390625 44.9140625 62.9453125 C47.95127773 67.62468601 50.97642802 72.31180306 54 77 C54.61472168 77.95165039 55.22944336 78.90330078 55.86279297 79.88378906 C57.76742181 82.83618236 59.66564772 85.79260573 61.5625 88.75 C62.16980957 89.6898877 62.77711914 90.62977539 63.40283203 91.59814453 C63.97243652 92.48872559 64.54204102 93.37930664 65.12890625 94.296875 C65.63494385 95.08416992 66.14098145 95.87146484 66.66235352 96.68261719 C68.03363331 99.05826746 69.04481814 101.43200735 70 104 C49.57917964 106.35931981 49.57917964 106.35931981 44.10888672 102.75341797 C41.09407048 99.36678472 39.47884728 95.32244863 37.87548828 91.12646484 C36.42579069 87.60530867 34.40813839 84.43613515 32.4375 81.1875 C29 75.25730994 29 75.25730994 29 73 C28.34 73 27.68 73 27 73 C26.7525 73.5775 26.505 74.155 26.25 74.75 C25 77 25 77 22.95996094 78.80175781 C20.54434622 81.51104965 20.47022749 82.83976313 20.390625 86.421875 C20.34228516 87.95908203 20.34228516 87.95908203 20.29296875 89.52734375 C20.27169922 91.12255859 20.27169922 91.12255859 20.25 92.75 C20.20552734 94.36841797 20.20552734 94.36841797 20.16015625 96.01953125 C20.08954329 98.67928595 20.04249764 101.33964754 20 104 C13.4 104 6.8 104 0 104 C0 69.68 0 35.36 0 0 Z " fill="#FBF8F4" transform="translate(410,679)"/>
<path d="M0 0 C6.27 0 12.54 0 19 0 C19.33 12.54 19.66 25.08 20 38 C21.65 36.35 23.3 34.7 25 33 C31.51060288 28.31236593 37.93149125 27.34488662 45.87109375 28.37109375 C52.65837511 29.88670027 57.56575389 32.60047583 62 38 C66.09560317 44.54683699 68.13272434 50.51209057 68.11352539 58.24926758 C68.11341209 59.78028862 68.11341209 59.78028862 68.11329651 61.34223938 C68.10813522 62.4319957 68.10297394 63.52175201 68.09765625 64.64453125 C68.0962413 65.7694548 68.09482635 66.89437836 68.09336853 68.0533905 C68.08777931 71.63978759 68.07522872 75.22612184 68.0625 78.8125 C68.05748361 81.24674389 68.05292094 83.68098876 68.04882812 86.11523438 C68.03781339 92.07684706 68.02055611 98.03841288 68 104 C61.4 104 54.8 104 48 104 C47.99589111 102.618125 47.99178223 101.23625 47.98754883 99.8125 C47.96569464 94.66092177 47.91133891 89.51010047 47.84741211 84.35888672 C47.82428701 82.1340259 47.80984935 79.90905646 47.80444336 77.68408203 C47.79511396 74.47620381 47.75403403 71.27002114 47.70703125 68.0625 C47.7109639 67.07572266 47.71489655 66.08894531 47.71894836 65.07226562 C47.58273464 58.55132588 46.30530913 54.01307635 42 49 C38.10157373 46.47129107 33.54053296 46.28775954 29 47 C23.9941333 49.45570819 21.98859108 51.85251403 20 57 C19.54342216 60.62132261 19.51165229 64.22031092 19.48828125 67.8671875 C19.47033005 68.90191193 19.45237885 69.93663635 19.43388367 71.00271606 C19.37989031 74.29343647 19.34591958 77.58401271 19.3125 80.875 C19.27931731 83.11199918 19.24482677 85.34897936 19.20898438 87.5859375 C19.12416983 93.05718749 19.05730589 98.52839553 19 104 C12.73 104 6.46 104 0 104 C0 69.68 0 35.36 0 0 Z " fill="#FCFAF4" transform="translate(666,679)"/>
<path d="M0 0 C6.41837215 4.59265145 10.74685963 9.74057888 13.25 17.25 C13.29321313 18.91610636 13.3011704 20.58411904 13.25 22.25 C10.00068073 22.42455021 6.75256552 22.53091753 3.5 22.625 C2.11941406 22.70041016 2.11941406 22.70041016 0.7109375 22.77734375 C-1.90317278 22.83417223 -4.19579778 22.81778995 -6.75 22.25 C-9.21875 19.34375 -9.21875 19.34375 -10.75 16.25 C-14.56608555 13.64812349 -18.0035659 12.6344962 -22.6640625 12.83984375 C-28.07253256 13.90330696 -31.71625853 17.0611973 -35.25 21.125 C-38.3625454 27.44735785 -37.87504194 36.2311336 -36.01953125 42.859375 C-33.78294801 47.71595576 -30.56060428 50.84469786 -25.75 53.25 C-21.18066001 53.67054103 -17.06895005 53.81125534 -12.8125 52 C-9.6853641 49.34667257 -8.0490647 47.14719409 -6.75 43.25 C0.18 43.25 7.11 43.25 14.25 43.25 C12.8508102 53.04432861 9.06388562 60.05055356 1.25 66.25 C-8.64459997 72.38618603 -19.42392127 73.99900019 -30.85546875 71.59765625 C-41.20972677 68.19491701 -48.62575748 61.82294182 -53.75 52.25 C-58.63579587 41.57788903 -59.66292515 29.66755609 -55.8125 18.5 C-51.38169313 8.23654906 -43.72733253 0.53164516 -33.4140625 -3.7109375 C-21.85894526 -7.68414816 -10.3603297 -6.47953731 0 0 Z " fill="#FAF8F4" transform="translate(386.75,712.75)"/>
<path d="M0 0 C6.21701776 -0.06473441 12.43401485 -0.11409695 18.65126419 -0.15037155 C22.33996594 -0.1719382 26.02840627 -0.19896925 29.71694374 -0.24035454 C33.82200555 -0.28540803 37.92652451 -0.29741739 42.03182411 -0.30615044 C43.8505352 -0.33232193 43.8505352 -0.33232193 45.70598793 -0.35902214 C52.00387286 -0.34287517 56.09141659 -0.25727237 60.81307411 4.11963081 C62.36331875 7.2201201 62.10299427 9.69857299 61.81307411 13.11963081 C59.67628126 16.50902637 58.63559741 17.84545638 54.81307411 19.11963081 C52.97241151 19.22072174 51.12831434 19.26326946 49.28490639 19.27353096 C48.13526909 19.28213142 46.98563179 19.29073189 45.801157 19.29959297 C43.90754181 19.30598289 43.90754181 19.30598289 41.97567177 19.31250191 C40.63360317 19.32040494 39.29153669 19.32867401 37.94947243 19.33728218 C33.54204772 19.36347327 29.13461364 19.37880424 24.72713661 19.39306831 C23.20949103 19.39842869 21.69184552 19.4038062 20.17420006 19.40920067 C13.86214012 19.43082275 7.55008273 19.44956031 1.23799515 19.46082306 C-7.8075065 19.47706987 -16.85257914 19.51027255 -25.89791906 19.56722391 C-32.25893932 19.60590952 -38.61984474 19.62545392 -44.98097956 19.63074362 C-48.78022476 19.63439828 -52.57901209 19.64643111 -56.37812996 19.67884636 C-59.95205528 19.70890439 -63.52524514 19.71524765 -67.09926987 19.7034626 C-69.03423377 19.70313643 -70.96915213 19.72761595 -72.90395164 19.75284004 C-82.3640126 19.68472361 -82.3640126 19.68472361 -85.46393394 16.7279377 C-87.23274493 14.05026884 -87.86712366 12.73100288 -87.81192589 9.55713081 C-87.82481651 8.81334175 -87.83770714 8.06955269 -87.85098839 7.30322456 C-86.85638479 4.0327339 -84.98525814 2.99661583 -82.18692589 1.11963081 C-79.37903404 0.60064888 -79.37903404 0.60064888 -76.25675011 0.57373238 C-74.47595558 0.5441922 -74.47595558 0.5441922 -72.65918541 0.51405525 C-70.71998726 0.51217453 -70.71998726 0.51217453 -68.74161339 0.51025581 C-67.36143671 0.49496902 -65.98127785 0.4779944 -64.60114098 0.4594593 C-60.8657598 0.4145785 -57.13063385 0.39467122 -53.39502525 0.3803997 C-49.48897335 0.36237053 -45.58309692 0.3250507 -41.67716026 0.29077339 C-35.15929049 0.23673701 -28.64147816 0.19916284 -22.12344933 0.17090034 C-14.74862292 0.13861064 -7.3744793 0.07755619 0 0 Z " fill="#FAF8F3" transform="translate(485.1869258880615,540.8803691864014)"/>
<path d="M0 0 C4.7526333 3.99653255 7.63037058 8.12954448 8.43359375 14.3671875 C8.44140241 21.3793683 8.43527779 27.29749999 4 33 C-0.28289403 37.17307623 -4.37900203 39.06093152 -10.3125 39.4375 C-16.43973001 39.26418401 -20.33743411 36.62379066 -24.609375 32.4140625 C-29.46182599 26.17130252 -28.88736961 18.51799251 -28 11 C-26.46866904 5.56703325 -23.80597479 2.04769133 -19 -1 C-12.38272085 -4.4827785 -6.41836021 -3.44689715 0 0 Z " fill="#4B2F8D" transform="translate(294,728)"/>
<path d="M0 0 C5.19145528 2.4591104 8.65845101 6.11422196 11.0859375 11.3359375 C13.55296953 18.52617616 12.3886705 26.00743329 9.33984375 32.83203125 C6.87169506 36.82568291 3.48972763 39.2373364 -0.9765625 40.60546875 C-5.66485903 41.51959607 -9.64745632 41.45986485 -14.125 39.9375 C-19.61083525 36.24052407 -23.70270864 31.61618594 -25 25 C-25.77529907 17.92539599 -25.00772315 11.99445771 -21 6 C-15.31200783 -0.7780742 -8.42697099 -1.28547015 0 0 Z " fill="#4C308D" transform="translate(788,726)"/>
<path d="M0 0 C4.16176811 2.30258572 7.14969542 5.11879298 9.02734375 9.51953125 C10.74895584 16.78258226 11.13444427 26.02368888 7.96484375 32.90625 C5.29745174 36.65501715 2.75972085 39.10256145 -1.34765625 41.15625 C-7.80138863 41.65863635 -13.90708129 42.10066685 -19.34765625 38.15625 C-24.56161937 32.51953312 -24.60653363 27.77919675 -24.72265625 20.46875 C-24.76003906 19.59541016 -24.79742188 18.72207031 -24.8359375 17.82226562 C-24.92252896 11.38082342 -23.53317245 7.11145481 -19.34765625 2.15625 C-13.90067563 -1.99383047 -6.36382498 -2.28716505 0 0 Z " fill="#4B2F8D" transform="translate(873.34765625,725.84375)"/>
<path d="M0 0 C5.537808 1.96092873 9.31482443 5.67012483 12.15625 10.7578125 C14.20469925 16.20137672 13.48956235 21.27213289 11.9375 26.75 C8.86263697 31.90783476 4.5671416 35.66882598 -1 38 C-6.49438599 38.88819022 -11.29311755 38.12085417 -16.140625 35.40625 C-20.57341203 32.053722 -24.01494717 27.52062578 -25 22 C-25.36533171 16.33735853 -25.15924512 12.90227692 -22 8 C-15.44412397 0.58150871 -9.73739358 -1.31518043 0 0 Z " fill="#FBF8F4" transform="translate(455,376)"/>
<path d="M0 0 C2.91442223 1.30634321 4.87311062 2.65763537 7.0234375 5.01171875 C7.57 5.60533203 8.1165625 6.19894531 8.6796875 6.81054688 C9.23914063 7.42994141 9.79859375 8.04933594 10.375 8.6875 C11.20257812 9.58758789 11.20257812 9.58758789 12.046875 10.50585938 C15.78886281 14.59481554 19.41087221 18.77653996 23 23 C21.22942728 26.83360612 19.96210476 28.26657917 16 30 C9.55864595 31.4523535 3.73909481 31.55823878 -2 28 C-5.86329928 24.47305763 -7.76006739 21.03942719 -8.375 15.8125 C-7.88581512 10.83912043 -5.89141579 7.9670913 -3 4 C-2.401875 3.175 -1.80375 2.35 -1.1875 1.5 C-0.795625 1.005 -0.40375 0.51 0 0 Z " fill="#4B2F8C" transform="translate(512,737)"/>
<path d="M0 0 C0.66 0.33 1.32 0.66 2 1 C2 40.27 2 79.54 2 120 C2.99 120 3.98 120 5 120 C3.02 121.65 1.04 123.3 -1 125 C-1.02332909 108.8496808 -1.04097922 92.69936704 -1.05181217 76.54903507 C-1.05697511 69.05066936 -1.06401776 61.55231409 -1.07543945 54.05395508 C-1.08538637 47.52069496 -1.09185344 40.98744241 -1.09408849 34.45417494 C-1.09539559 30.99278193 -1.09848136 27.53141058 -1.10573006 24.07002449 C-1.11374407 20.21212473 -1.11399113 16.35424643 -1.11352539 12.49633789 C-1.11712067 11.34044159 -1.12071594 10.18454529 -1.12442017 8.99362183 C-1.1230455 7.94889206 -1.12167084 6.90416229 -1.12025452 5.82777405 C-1.12117631 4.9142772 -1.1220981 4.00078035 -1.12304783 3.05960178 C-1 1 -1 1 0 0 Z " fill="#371882" transform="translate(406,352)"/>
<path d="M0 0 C8.25 0 16.5 0 25 0 C25 0.33 25 0.66 25 1 C17.41 1 9.82 1 2 1 C2 34 2 67 2 101 C5.96 101 9.92 101 14 101 C14 101.33 14 101.66 14 102 C9.38 102.33 4.76 102.66 0 103 C0 69.01 0 35.02 0 0 Z " fill="#EBE5EC" transform="translate(125,680)"/>
<path d="M0 0 C1.72283109 0.00276538 1.72283109 0.00276538 3.48046684 0.00558662 C5.45350288 0.00146263 5.45350288 0.00146263 7.46639824 -0.00274467 C8.93258566 0.00433413 10.39877218 0.01160376 11.86495781 0.01904488 C13.40217901 0.01960876 14.93940074 0.01929289 16.47662163 0.01815987 C20.65823488 0.01758444 24.83973413 0.02936932 29.02132082 0.04330778 C33.38821051 0.05578363 37.75510261 0.05698315 42.12200737 0.0593586 C50.39513602 0.06558264 58.66821201 0.08200592 66.94131744 0.10205758 C76.35834776 0.12438787 85.77538055 0.13540277 95.19243073 0.14544845 C114.56751522 0.16637137 133.94255065 0.20156525 153.31759453 0.24609566 C153.31759453 2.88609566 153.31759453 5.52609566 153.31759453 8.24609566 C152.98759453 8.24609566 152.65759453 8.24609566 152.31759453 8.24609566 C152.31759453 5.93609566 152.31759453 3.62609566 152.31759453 1.24609566 C101.49759453 1.24609566 50.67759453 1.24609566 -1.68240547 1.24609566 C-1.68240547 3.55609566 -1.68240547 5.86609566 -1.68240547 8.24609566 C-2.67240547 8.57609566 -3.66240547 8.90609566 -4.68240547 9.24609566 C-4.80740547 5.87109566 -4.80740547 5.87109566 -4.68240547 2.24609566 C-2.68240547 0.24609566 -2.68240547 0.24609566 0 0 Z " fill="#583C94" transform="translate(436.68240547180176,271.75390434265137)"/>
<path d="M0 0 C2.31962709 2.31962709 3.30985217 4.46509652 4.6875 7.4375 C5.14511719 8.40558594 5.60273438 9.37367188 6.07421875 10.37109375 C7 13 7 13 6 16 C5.01 14.02 4.02 12.04 3 10 C2.98969254 10.69935165 2.97938507 11.39870331 2.96876526 12.11924744 C2.87094968 18.69713663 2.76845843 25.2749342 2.66066074 31.85266781 C2.60540198 35.23467122 2.55197744 38.61668324 2.50268555 41.9987793 C2.44599054 45.88339427 2.38142415 49.76785878 2.31640625 53.65234375 C2.29133751 55.48199928 2.29133751 55.48199928 2.26576233 57.34861755 C2.24581711 58.46970413 2.22587189 59.59079071 2.20532227 60.74584961 C2.18977798 61.73846298 2.1742337 62.73107635 2.15821838 63.75376892 C2 66 2 66 1 67 C-0.63472882 67.08700342 -2.27314055 67.10701063 -3.91015625 67.09765625 C-4.89951172 67.09443359 -5.88886719 67.09121094 -6.90820312 67.08789062 C-7.94912109 67.07951172 -8.99003906 67.07113281 -10.0625 67.0625 C-11.10728516 67.05798828 -12.15207031 67.05347656 -13.22851562 67.04882812 C-15.8190666 67.03699913 -18.40950559 67.02051689 -21 67 C-21 66.67 -21 66.34 -21 66 C-14.07 66 -7.14 66 0 66 C0 44.22 0 22.44 0 0 Z " fill="#381A82" transform="translate(146,717)"/>
<path d="M0 0 C0.66 0.33 1.32 0.66 2 1 C2 1.66 2 2.32 2 3 C2.8971875 3.4021875 2.8971875 3.4021875 3.8125 3.8125 C5.97224808 4.98493467 7.35790256 6.19369282 9 8 C4.125 6.125 4.125 6.125 3 5 C2.97494385 5.96413818 2.9498877 6.92827637 2.92407227 7.92163086 C2.83014694 11.48687842 2.72989061 15.05192433 2.62768555 18.61694336 C2.58428015 20.16214289 2.54260929 21.70739214 2.50268555 23.25268555 C2.44511801 25.46939096 2.38138576 27.6858448 2.31640625 29.90234375 C2.29133751 30.94454323 2.29133751 30.94454323 2.26576233 32.00779724 C2.11387171 36.88612829 2.11387171 36.88612829 1 38 C-0.56172745 38.08685603 -2.12729344 38.10702219 -3.69140625 38.09765625 C-4.63564453 38.09443359 -5.57988281 38.09121094 -6.55273438 38.08789062 C-7.54595703 38.07951172 -8.53917969 38.07113281 -9.5625 38.0625 C-10.55958984 38.05798828 -11.55667969 38.05347656 -12.58398438 38.04882812 C-15.05604849 38.03700007 -17.52799518 38.02051849 -20 38 C-20 37.67 -20 37.34 -20 37 C-13.4 37 -6.8 37 0 37 C0 24.79 0 12.58 0 0 Z " fill="#3C1D83" transform="translate(849,775)"/>
<path d="M0 0 C3.31248187 -0.02888146 6.62493167 -0.04675799 9.9375 -0.0625 C10.88302734 -0.07087891 11.82855469 -0.07925781 12.80273438 -0.08789062 C14.15141602 -0.09272461 14.15141602 -0.09272461 15.52734375 -0.09765625 C16.77632446 -0.10551147 16.77632446 -0.10551147 18.05053711 -0.11352539 C20 0 20 0 21 1 C21.08847743 3.52094076 21.11527301 6.01430893 21.09765625 8.53515625 C21.0962413 9.28840683 21.09482635 10.04165741 21.09336853 10.81773376 C21.08775376 13.2326956 21.07519883 15.64756601 21.0625 18.0625 C21.0574869 19.69596221 21.05292366 21.32942586 21.04882812 22.96289062 C21.03777954 26.97529585 21.02050506 30.98763241 21 35 C21.66 35.33 22.32 35.66 23 36 C21.68 37.32 20.36 38.64 19 40 C19 27.13 19 14.26 19 1 C12.73 1 6.46 1 0 1 C0 0.67 0 0.34 0 0 Z " fill="#351881" transform="translate(666,678)"/>
<path d="M0 0 C6.27 0 12.54 0 19 0 C18.67 1.32 18.34 2.64 18 4 C17.67 3.34 17.34 2.68 17 2 C11.72 2 6.44 2 1 2 C1 4.31 1 6.62 1 9 C0.67 9 0.34 9 0 9 C0 6.03 0 3.06 0 0 Z " fill="#EBE6ED" transform="translate(666,679)"/>
<path d="M0 0 C0.66 0 1.32 0 2 0 C3.32 2.97 4.64 5.94 6 9 C7.32 8.67 8.64 8.34 10 8 C9.47731534 10.76276177 8.89130413 13.3260876 8 16 C7.34 16 6.68 16 6 16 C4.9955866 13.7101766 3.99632388 11.4183401 3 9.125 C2.71382812 8.47402344 2.42765625 7.82304688 2.1328125 7.15234375 C0 2.2265625 0 2.2265625 0 0 Z " fill="#381C81" transform="translate(174,732)"/>
<path d="M0 0 C2 2 2 2 2.3125 5.875 C2.24088781 9.45560962 1.60208598 11.39791402 -1 14 C-1.18451025 4.58997722 -1.18451025 4.58997722 0 0 Z " fill="#3D2186" transform="translate(337,480)"/>
<path d="M0 0 C0.33 0.99 0.66 1.98 1 3 C-1.64 5.31 -4.28 7.62 -7 10 C-7 7 -7 7 -5.46875 5.17578125 C-4.8190625 4.56089844 -4.169375 3.94601562 -3.5 3.3125 C-2.8503125 2.68988281 -2.200625 2.06726563 -1.53125 1.42578125 C-0.77328125 0.72001953 -0.77328125 0.72001953 0 0 Z " fill="#351B80" transform="translate(474,714)"/>
<path d="M0 0 C0.99 0.99 1.98 1.98 3 3 C2.4225 3.0825 1.845 3.165 1.25 3.25 C-1.60798931 4.2026631 -2.92954588 5.86053074 -5 8 C-5.66 8 -6.32 8 -7 8 C-5.50902342 4.2047869 -3.24299151 2.38957269 0 0 Z " fill="#371E81" transform="translate(449,460)"/>
<path d="M0 0 C2 2 2 2 2.1953125 3.9453125 C2.13020833 5.96354167 2.06510417 7.98177083 2 10 C1.01 9.67 0.02 9.34 -1 9 C-0.67 6.03 -0.34 3.06 0 0 Z " fill="#422687" transform="translate(357,309)"/>
<path d="M0 0 C3.7952131 1.49097658 5.61042731 3.75700849 8 7 C7.01 7 6.02 7 5 7 C5 6.34 5 5.68 5 5 C4.34 5 3.68 5 3 5 C3 4.34 3 3.68 3 3 C2.01 2.67 1.02 2.34 0 2 C0 1.34 0 0.68 0 0 Z " fill="#F2EDF2" transform="translate(600,462)"/>
<path d="M0 0 C0 2.31 0 4.62 0 7 C-0.99 7 -1.98 7 -3 7 C-3 5.02 -3 3.04 -3 1 C-1 0 -1 0 0 0 Z " fill="#593D94" transform="translate(338,491)"/>
</svg>
